<mxfile host="app.diagrams.net" agent="Mozilla/5.0 (Windows NT 10.0; Win64; x64) AppleWebKit/537.36 (KHTML, like Gecko) Chrome/141.0.0.0 Safari/537.36" version="28.2.8">
  <diagram id="bai2" name="Bai2">
    <mxGraphModel dx="1281" dy="527" grid="1" gridSize="10" guides="1" tooltips="1" connect="1" arrows="1" fold="1" page="1" pageScale="1" pageWidth="1169" pageHeight="827" math="0" shadow="0">
      <root>
        <mxCell id="0" />
        <mxCell id="1" parent="0" />
        <mxCell id="sysBoundary2" value="" style="shape=rectangle;whiteSpace=wrap;html=1;strokeWidth=2;rounded=0;" parent="1" vertex="1">
          <mxGeometry x="200" y="80" width="740" height="460" as="geometry" />
        </mxCell>
        <mxCell id="uc_order" value="Đặt hàng" style="ellipse;whiteSpace=wrap;html=1;aspect=fixed;" parent="sysBoundary2" vertex="1">
          <mxGeometry x="150" y="170" width="160" height="70" as="geometry" />
        </mxCell>
        <mxCell id="uc_check_cart" value="Kiểm tra giỏ hàng" style="ellipse;whiteSpace=wrap;html=1;aspect=fixed;" parent="sysBoundary2" vertex="1">
          <mxGeometry x="380" y="130" width="200" height="70" as="geometry" />
        </mxCell>
        <mxCell id="uc_ship_fee" value="Tính phí vận chuyển" style="ellipse;whiteSpace=wrap;html=1;aspect=fixed;" parent="sysBoundary2" vertex="1">
          <mxGeometry x="380" y="240" width="220" height="70" as="geometry" />
        </mxCell>
        <mxCell id="include_check_cart" value="«include»" style="endArrow=open;dashed=1;html=1;fontSize=12;labelBackgroundColor=#ffffff;" parent="sysBoundary2" source="uc_order" target="uc_check_cart" edge="1">
          <mxGeometry relative="1" as="geometry">
            <mxPoint y="-10" as="offset" />
          </mxGeometry>
        </mxCell>
        <mxCell id="include_ship_fee" value="«include»" style="endArrow=open;dashed=1;html=1;fontSize=12;labelBackgroundColor=#ffffff;" parent="sysBoundary2" source="uc_order" target="uc_ship_fee" edge="1">
          <mxGeometry relative="1" as="geometry">
            <mxPoint y="-10" as="offset" />
          </mxGeometry>
        </mxCell>
        <mxCell id="BKAu3N_clXocpcLIfOLX-1" value="Hệ thống đặt hàng" style="text;html=1;whiteSpace=wrap;strokeColor=none;fillColor=none;align=center;verticalAlign=middle;rounded=0;" vertex="1" parent="sysBoundary2">
          <mxGeometry x="250" y="20" width="240" height="30" as="geometry" />
        </mxCell>
        <mxCell id="actor_customer" value="Khách hàng" style="shape=umlActor;verticalLabelPosition=bottom;verticalAlign=top;html=1;" parent="1" vertex="1">
          <mxGeometry x="60" y="260" width="60" height="100" as="geometry" />
        </mxCell>
        <mxCell id="assoc_customer_order" style="endArrow=none;html=1;" parent="1" source="actor_customer" target="uc_order" edge="1">
          <mxGeometry relative="1" as="geometry" />
        </mxCell>
      </root>
    </mxGraphModel>
  </diagram>
</mxfile>
